<svg width="100%" height="100%" viewBox="0 0 26 23" xmlns="http://www.w3.org/2000/svg"><path d="M7.25 9.67188C6.56641 9.67188 6.07812 10.209 6.07812 10.8438C6.07812 11.5273 6.56641 12.0156 7.25 12.0156C7.88477 12.0156 8.42188 11.5273 8.42188 10.8438C8.42188 10.209 7.88477 9.67188 7.25 9.67188ZM13.5 9.67188C12.8164 9.67188 12.3281 10.209 12.3281 10.8438C12.3281 11.5273 12.8164 12.0156 13.5 12.0156C14.1348 12.0156 14.6719 11.5273 14.6719 10.8438C14.6719 10.209 14.1348 9.67188 13.5 9.67188ZM19.75 9.67188C19.0664 9.67188 18.5781 10.209 18.5781 10.8438C18.5781 11.5273 19.0664 12.0156 19.75 12.0156C20.3848 12.0156 20.9219 11.5273 20.9219 10.8438C20.9219 10.209 20.3848 9.67188 19.75 9.67188ZM13.5 0.6875C6.56641 0.6875 1 5.27734 1 10.8438C1 13.1875 1.92773 15.3359 3.53906 17.0449C2.85547 18.9492 1.3418 20.6094 1.29297 20.6094C0.951172 20.9512 0.902344 21.4395 1.04883 21.8789C1.24414 22.3184 1.68359 22.5625 2.17188 22.5625C5.15039 22.5625 7.54297 21.3418 8.95898 20.3164C10.375 20.7559 11.8887 21 13.5 21C20.3848 21 26 16.459 26 10.8438C26 5.27734 20.3848 0.6875 13.5 0.6875ZM13.5 19.4375C12.084 19.4375 10.7168 19.2422 9.39844 18.8516L8.66602 18.6074L8.03125 19.0469C6.9082 19.8281 5.19922 20.7559 3.05078 21C3.63672 20.2676 4.4668 18.998 5.00391 17.582L5.3457 16.6543L4.71094 15.9707C3.29492 14.457 2.5625 12.6992 2.5625 10.8438C2.5625 6.10742 7.44531 2.25 13.5 2.25C19.5059 2.25 24.4375 6.10742 24.4375 10.8438C24.4375 15.5801 19.5059 19.4375 13.5 19.4375Z" fill="currentColor"/></svg>