<svg width="100%" height="100%" viewBox="0 0 22 23" xmlns="http://www.w3.org/2000/svg"><path d="M11 0.75C17.0586 0.75 22 5.69141 22 11.75C22 17.8516 17.0586 22.75 11 22.75C4.89844 22.75 0 17.8516 0 11.75C0 5.69141 4.89844 0.75 11 0.75ZM11 21.375C11.6875 21.375 12.7188 20.7734 13.6211 18.9258C14.0508 18.0664 14.4375 17.0352 14.6523 15.875H7.30469C7.51953 17.0352 7.90625 18.0664 8.33594 18.9258C9.23828 20.7734 10.2695 21.375 11 21.375ZM7.04688 14.5H14.9102C15.0391 13.6406 15.125 12.7383 15.125 11.75C15.125 10.8047 15.0391 9.90234 14.9102 9H7.04688C6.91797 9.90234 6.875 10.8047 6.875 11.75C6.875 12.7383 6.91797 13.6406 7.04688 14.5ZM14.6523 7.625C14.4375 6.46484 14.0508 5.47656 13.6211 4.61719C12.7188 2.76953 11.6875 2.125 11 2.125C10.2695 2.125 9.23828 2.76953 8.33594 4.61719C7.90625 5.47656 7.51953 6.46484 7.30469 7.625H14.6523ZM16.2852 9C16.4141 9.90234 16.5 10.8047 16.5 11.75C16.5 12.7383 16.4141 13.6406 16.2852 14.5H20.1953C20.4531 13.6406 20.625 12.7383 20.625 11.75C20.625 10.8047 20.4531 9.90234 20.1953 9H16.2852ZM14.0508 2.64062C14.9531 3.84375 15.6836 5.60547 16.0703 7.625H19.6797C18.5625 5.30469 16.543 3.5 14.0508 2.64062ZM7.90625 2.64062C5.41406 3.5 3.39453 5.30469 2.27734 7.625H5.88672C6.27344 5.60547 7.00391 3.84375 7.90625 2.64062ZM1.375 11.75C1.375 12.7383 1.50391 13.6406 1.76172 14.5H5.67188C5.54297 13.6406 5.5 12.7383 5.5 11.75C5.5 10.8047 5.54297 9.90234 5.67188 9H1.76172C1.50391 9.90234 1.375 10.8047 1.375 11.75ZM19.6797 15.875H16.0703C15.6836 17.9375 14.9531 19.6562 14.0508 20.9023C16.543 20.043 18.5625 18.2383 19.6797 15.875ZM5.88672 15.875H2.27734C3.39453 18.2383 5.41406 20.043 7.90625 20.9023C7.00391 19.6562 6.27344 17.9375 5.88672 15.875Z" fill="currentColor"/></svg>