<svg width="100%" height="100%" viewBox="0 0 14 14" xmlns="http://www.w3.org/2000/svg"><path d="M2.75 0C3.4375 0 4 0.5625 4 1.25V2.75C4 3.46875 3.4375 4 2.75 4H1.25C0.53125 4 0 3.46875 0 2.75V1.25C0 0.5625 0.53125 0 1.25 0H2.75ZM2.75 1H1.25C1.09375 1 1 1.125 1 1.25V2.75C1 2.90625 1.09375 3 1.25 3H2.75C2.875 3 3 2.90625 3 2.75V1.25C3 1.125 2.875 1 2.75 1ZM2.75 5C3.4375 5 4 5.5625 4 6.25V7.75C4 8.46875 3.4375 9 2.75 9H1.25C0.53125 9 0 8.46875 0 7.75V6.25C0 5.5625 0.53125 5 1.25 5H2.75ZM2.75 6H1.25C1.09375 6 1 6.125 1 6.25V7.75C1 7.90625 1.09375 8 1.25 8H2.75C2.875 8 3 7.90625 3 7.75V6.25C3 6.125 2.875 6 2.75 6ZM0 11.25C0 10.5625 0.53125 10 1.25 10H2.75C3.4375 10 4 10.5625 4 11.25V12.75C4 13.4688 3.4375 14 2.75 14H1.25C0.53125 14 0 13.4688 0 12.75V11.25ZM1 11.25V12.75C1 12.9062 1.09375 13 1.25 13H2.75C2.875 13 3 12.9062 3 12.75V11.25C3 11.125 2.875 11 2.75 11H1.25C1.09375 11 1 11.125 1 11.25ZM7.75 0C8.4375 0 9 0.5625 9 1.25V2.75C9 3.46875 8.4375 4 7.75 4H6.25C5.53125 4 5 3.46875 5 2.75V1.25C5 0.5625 5.53125 0 6.25 0H7.75ZM7.75 1H6.25C6.09375 1 6 1.125 6 1.25V2.75C6 2.90625 6.09375 3 6.25 3H7.75C7.875 3 8 2.90625 8 2.75V1.25C8 1.125 7.875 1 7.75 1ZM5 6.25C5 5.5625 5.53125 5 6.25 5H7.75C8.4375 5 9 5.5625 9 6.25V7.75C9 8.46875 8.4375 9 7.75 9H6.25C5.53125 9 5 8.46875 5 7.75V6.25ZM6 6.25V7.75C6 7.90625 6.09375 8 6.25 8H7.75C7.875 8 8 7.90625 8 7.75V6.25C8 6.125 7.875 6 7.75 6H6.25C6.09375 6 6 6.125 6 6.25ZM7.75 10C8.4375 10 9 10.5625 9 11.25V12.75C9 13.4688 8.4375 14 7.75 14H6.25C5.53125 14 5 13.4688 5 12.75V11.25C5 10.5625 5.53125 10 6.25 10H7.75ZM7.75 11H6.25C6.09375 11 6 11.125 6 11.25V12.75C6 12.9062 6.09375 13 6.25 13H7.75C7.875 13 8 12.9062 8 12.75V11.25C8 11.125 7.875 11 7.75 11ZM10 1.25C10 0.5625 10.5312 0 11.25 0H12.75C13.4375 0 14 0.5625 14 1.25V2.75C14 3.46875 13.4375 4 12.75 4H11.25C10.5312 4 10 3.46875 10 2.75V1.25ZM11 1.25V2.75C11 2.90625 11.0938 3 11.25 3H12.75C12.875 3 13 2.90625 13 2.75V1.25C13 1.125 12.875 1 12.75 1H11.25C11.0938 1 11 1.125 11 1.25ZM12.75 5C13.4375 5 14 5.5625 14 6.25V7.75C14 8.46875 13.4375 9 12.75 9H11.25C10.5312 9 10 8.46875 10 7.75V6.25C10 5.5625 10.5312 5 11.25 5H12.75ZM12.75 6H11.25C11.0938 6 11 6.125 11 6.25V7.75C11 7.90625 11.0938 8 11.25 8H12.75C12.875 8 13 7.90625 13 7.75V6.25C13 6.125 12.875 6 12.75 6ZM10 11.25C10 10.5625 10.5312 10 11.25 10H12.75C13.4375 10 14 10.5625 14 11.25V12.75C14 13.4688 13.4375 14 12.75 14H11.25C10.5312 14 10 13.4688 10 12.75V11.25ZM11 11.25V12.75C11 12.9062 11.0938 13 11.25 13H12.75C12.875 13 13 12.9062 13 12.75V11.25C13 11.125 12.875 11 12.75 11H11.25C11.0938 11 11 11.125 11 11.25Z" fill="currentColor"/></svg>