<svg width="100%" height="100%" viewBox="0 0 20 23" xmlns="http://www.w3.org/2000/svg"><path d="M9.58203 4.375H9.625C11.2578 4.375 12.7188 5.36328 13.3633 6.82422C14.0508 8.32812 13.75 10.0469 12.6758 11.25C12.6758 11.293 12.6758 11.25 12.6758 11.25H13.0625C13.75 11.25 14.3945 10.9062 14.7812 10.3047C14.9961 9.74609 15.125 9.14453 15.125 8.5C15.125 5.49219 12.6328 3 9.625 3C6.57422 3 4.125 5.49219 4.125 8.5C4.125 10.2617 4.94141 11.7656 6.1875 12.7969C6.1875 12.7539 6.1875 12.7109 6.1875 12.625C6.1875 12.1523 6.31641 11.6797 6.53125 11.25C5.45703 10.0469 5.15625 8.32812 5.84375 6.82422C6.48828 5.36328 7.94922 4.375 9.58203 4.375ZM2.0625 9.875C2.40625 9.875 2.75 9.57422 2.75 9.1875V8.5C2.75 4.71875 5.80078 1.625 9.625 1.625C13.4062 1.625 16.5 4.71875 16.5 8.5V9.1875C16.5 11.1211 14.9531 12.625 13.0625 12.625H11.6875C11.6875 11.8945 11.043 11.25 10.3125 11.25H8.9375C8.16406 11.25 7.5625 11.8945 7.5625 12.625C7.5625 13.3984 8.16406 14 8.9375 14H13.0625C15.6836 14 17.832 11.8516 17.875 9.1875V8.5C17.875 3.98828 14.1367 0.25 9.625 0.25C5.07031 0.25 1.375 3.98828 1.375 8.5V9.1875C1.375 9.57422 1.67578 9.875 2.0625 9.875ZM13.4922 15.375H5.71484C2.53516 15.375 0 17.9531 0 21.1328C0 21.7773 0.472656 22.25 1.11719 22.25H18.0898C18.7344 22.25 19.25 21.7773 19.25 21.1328C19.25 17.9531 16.6719 15.375 13.4922 15.375ZM1.375 20.875C1.46094 18.5977 3.39453 16.75 5.71484 16.75H13.4922C15.8125 16.75 17.7461 18.5977 17.832 20.875H1.375Z" fill="currentColor"/></svg>