<svg width="100%" height="100%" viewBox="0 0 41 36" xmlns="http://www.w3.org/2000/svg"><path d="M28.3954 0C25.3139 0 22.3924 1.18812 20.2313 3.36634L19.9912 3.60396L19.7511 3.36634C17.55 1.18812 14.6686 0 11.587 0C8.50549 0 5.58403 1.18812 3.42295 3.36634C-1.09932 7.84159 -1.09932 15.0891 3.42295 19.5644L20.0312 36L36.6396 19.5644C41.1618 15.0891 41.1618 7.84159 36.6396 3.36634C34.4385 1.18812 31.557 0 28.4755 0H28.3954ZM33.8782 16.9109L19.9512 30.6931L6.02425 16.9109C2.98273 13.901 2.98273 9.02971 6.02425 6.01981C7.54501 4.51486 9.54601 3.76237 11.507 3.76237C13.468 3.76237 15.509 4.51486 16.9897 6.01981L19.9112 8.91089L22.8327 6.01981C25.8742 3.00991 30.7966 3.00991 33.8382 6.01981C36.8797 9.02971 36.8797 13.901 33.8382 16.9109H33.8782Z" fill="currentColor"/></svg>