<svg width="100%" height="100%" viewBox="0 0 16 14" xmlns="http://www.w3.org/2000/svg"><path d="M2.75 0.5C3.15625 0.5 3.5 0.84375 3.5 1.25V2.75C3.5 3.1875 3.15625 3.5 2.75 3.5H1.25C0.8125 3.5 0.5 3.1875 0.5 2.75V1.25C0.5 0.84375 0.8125 0.5 1.25 0.5H2.75ZM15 1C15.5312 1 16 1.46875 16 2C16 2.5625 15.5312 3 15 3H6C5.4375 3 5 2.5625 5 2C5 1.46875 5.4375 1 6 1H15ZM15 6C15.5312 6 16 6.46875 16 7C16 7.5625 15.5312 8 15 8H6C5.4375 8 5 7.5625 5 7C5 6.46875 5.4375 6 6 6H15ZM15 11C15.5312 11 16 11.4688 16 12C16 12.5625 15.5312 13 15 13H6C5.4375 13 5 12.5625 5 12C5 11.4688 5.4375 11 6 11H15ZM0.5 6.25C0.5 5.84375 0.8125 5.5 1.25 5.5H2.75C3.15625 5.5 3.5 5.84375 3.5 6.25V7.75C3.5 8.1875 3.15625 8.5 2.75 8.5H1.25C0.8125 8.5 0.5 8.1875 0.5 7.75V6.25ZM2.75 10.5C3.15625 10.5 3.5 10.8438 3.5 11.25V12.75C3.5 13.1875 3.15625 13.5 2.75 13.5H1.25C0.8125 13.5 0.5 13.1875 0.5 12.75V11.25C0.5 10.8438 0.8125 10.5 1.25 10.5H2.75Z" fill="currentColor"/></svg>