<svg xmlns="http://www.w3.org/2000/svg" viewBox="0 0 739.44 133.05" width="100%" height="100%"><path d="M49.32,93.34c0-5.91-2.64-9.18-19.12-13.84C11.7,74.22,3.77,64.91,3.77,52.2c0-14.6,10.82-24.91,30.07-24.91,12.84,0,24.54,4.91,32.34,14.21l-13.46,10a22.36,22.36,0,0,0-17-8.06c-7.92,0-11.7,3.27-11.7,8.06,0,5.28,3.78,8.68,17.37,12.83C60.52,70.07,69.58,77.11,69.58,92c0,15.85-12.71,26.42-32.72,26.42-15.09,0-27.8-5.53-36.86-15.72L14.34,92.08c5.41,6,12.84,10.2,21.52,10.2s13.46-3.52,13.46-8.94" fill="currentColor"/><path d="M101.35,82.9H123.5L112.43,47.67Zm54.23,34H134.19L128.4,98.76H96.32l-5.66,18.11H69.27L100,28.8h24.91Z" fill="currentColor"/><polygon points="160.81 28.8 219.7 28.8 219.7 44.78 180.82 44.78 180.82 66.04 215.29 66.04 215.29 82.02 180.82 82.02 180.82 116.87 160.81 116.87 160.81 28.8" fill="currentColor"/><polygon points="225.06 28.8 283.94 28.8 283.94 44.78 245.06 44.78 245.06 63.65 279.54 63.65 279.54 79.63 245.06 79.63 245.06 100.89 285.07 100.89 285.07 116.87 225.06 116.87 225.06 28.8" fill="currentColor"/><path d="M330,27.29c17,0,28.18,6.79,35.23,17.74l-9.06,5.66c-6.29-9.19-13.84-13.34-25.8-13.34-15.47,0-28.81,12.46-28.81,35.49,0,22.27,13.59,35.48,31.2,35.48,9.32,0,17.49-3.15,21.9-8.81V80.64h-22V70.82h33.09v32.72c-7.3,9.43-19,14.84-33.22,14.84-25,0-42.27-19.5-42.27-45.54,0-26.81,16.36-45.55,39.76-45.55" fill="currentColor"/><path d="M409.51,108.32c17,0,27.93-13.72,27.93-35.48s-10.95-35.49-27.93-35.49-28.06,13.72-28.06,35.49,10.94,35.48,28.06,35.48m0,10.06c-25,0-39.38-20-39.38-45.54s14.34-45.55,39.38-45.55,39.25,20,39.25,45.55-14.34,45.54-39.25,45.54" fill="currentColor"/><polygon points="454.53 28.8 465.6 28.8 465.6 107.06 509.26 107.06 509.26 116.87 454.53 116.87 454.53 28.8" fill="currentColor"/><path d="M544.58,107.06c19.88,0,31.33-12.33,31.33-34.22s-11.45-34.23-31.33-34.23H527.85v68.45ZM516.78,28.8h28.68c26.55,0,41.78,16.61,41.78,44s-15.23,44-41.78,44H516.78Z" fill="currentColor"/><path d="M739.21,61A66.47,66.47,0,0,0,633.84,12.73,14,14,0,0,1,637.56,17a61,61,0,1,1-17.8,19.92,14.17,14.17,0,0,1-4.65-3.22A66.5,66.5,0,1,0,739.21,61Z" fill="currentColor"/><circle cx="625.29" cy="23.94" r="8.47" style="fill:#d2ff5a"/><path d="M641.87,36.27h20.75c12.71,0,20,6.39,20,16,0,5.88-3.12,10.89-8.74,12.45,7.79,1.64,11.68,7.35,11.68,14.7,0,10.89-7.79,17.38-21.71,17.38h-22ZM661.59,62c8.64,0,13.4-3.8,13.4-9.77,0-6.4-4.76-9.25-13.4-9.25H649.48V62Zm1.12,6.74H649.48V90h13.23c10.38,0,15.22-3.8,15.22-10.63S673.09,68.77,662.71,68.77Z" fill="currentColor"/><path d="M704,36.27V96.79h-7.61V36.27Z" fill="currentColor"/></svg>