<svg width="100%" height="100%" xmlns="http://www.w3.org/2000/svg" viewBox="0 0 156.1 43.3" fill="currentColor"><path d="M91.8,12.9c2.9,0,5.2,0.9,6.9,2.6c1.7,1.7,2.5,4.2,2.5,7.2v10.7h-7.4V22.7c0-1.2-0.3-2.1-0.8-2.8c-0.5-0.7-1.2-1-2.1-1c-1.1,0-1.9,0.3-2.6,1c-0.6,0.7-0.9,1.6-0.9,2.8v10.7H80V13.5h5.9l0.1,2.3C87.3,13.9,89.2,12.9,91.8,12.9z"></path><path d="M120.2,0h7.4v33.4h-5.8l-0.3-2.3c-1.6,2-3.9,3-7,3c-2.9,0-5.3-1-7.2-2.9c-1.9-1.9-2.8-4.5-2.8-7.7s0.9-5.7,2.8-7.6s4.2-2.9,7.2-2.9c2.3,0,4.2,0.6,5.7,1.7L120.2,0L120.2,0z M115.8,27.9c1.3,0,2.4-0.4,3.2-1.2c0.8-0.8,1.2-1.9,1.2-3.2s-0.4-2.4-1.2-3.3c-0.8-0.8-1.8-1.2-3.2-1.2c-1.1,0-2.1,0.4-2.8,1.2c-0.7,0.8-1.1,1.9-1.1,3.3c0,1.3,0.4,2.4,1.1,3.2C113.8,27.5,114.7,27.9,115.8,27.9z"></path><path d="M52.8,27.7c-0.6,0-1-0.2-1.3-0.5s-0.4-0.9-0.4-1.7v-4.8c0-2.4-0.8-4.3-2.5-5.7s-3.9-2.1-6.8-2.1c-3.2,0-6.1,0.6-8.7,1.8l1.4,4.9c2.2-0.9,4.4-1.4,6.4-1.4c0.3,0,0.6,0,0.8,0c0.1,0,0.2,0,0.3,0c2.2,0,3.9,1.8,3.9,3.9S44.1,26,42,26c-2.2,0-3.9-1.8-3.9-3.9c0-0.4,0.1-0.8,0.2-1.1c-1.6,0.3-2.9,0.7-3.9,1.2c-2.2,1.1-3.3,2.8-3.3,5.3c0,4.3,3,6.5,9.1,6.5c2.3,0,4.4-0.6,6.3-1.8c1.1,0.8,2.7,1.2,4.7,1.2h1.6l0.5-5.7H52.8z"></path><path d="M76.6,27.7c-0.6,0-1-0.2-1.3-0.5s-0.4-0.9-0.4-1.7v-4.8c0-2.4-0.8-4.3-2.5-5.7s-3.9-2.1-6.8-2.1c-3.2,0-6.1,0.6-8.7,1.8l1.4,4.9c2.2-0.9,4.4-1.4,6.4-1.4c0.2,0,0.4,0,0.6,0h0.1c2.2,0,3.9,1.8,3.9,3.9S67.5,26,65.4,26s-3.9-1.8-3.9-3.9c0-0.4,0.1-0.7,0.2-1c-1.4,0.3-2.5,0.7-3.5,1.1c-2.2,1.1-3.3,2.8-3.3,5.3c0,4.3,3,6.5,9.1,6.5c2.3,0,4.4-0.6,6.3-1.8c1.1,0.8,2.7,1.2,4.7,1.2h1.6l0.5-5.7H76.6z"></path><path d="M152.7,27.7c-0.6,0-1-0.2-1.3-0.5s-0.4-0.9-0.4-1.7v-4.8c0-2.4-0.8-4.3-2.5-5.7s-3.9-2.1-6.8-2.1c-3.2,0-6.1,0.6-8.7,1.8l1.4,4.9c2.2-0.9,4.4-1.4,6.4-1.4c0.2,0,0.4,0,0.7,0h0.1c2.2,0,3.9,1.8,3.9,3.9s-1.8,3.9-3.9,3.9c-2.2,0-3.9-1.8-3.9-3.9c0-0.4,0.1-0.7,0.2-1c-1.4,0.3-2.6,0.7-3.6,1.2c-2.2,1.1-3.3,2.8-3.3,5.3c0,4.3,3,6.5,9.1,6.5c2.3,0,4.4-0.6,6.3-1.8c1.1,0.8,2.7,1.2,4.7,1.2h1.6l0.5-5.7h-0.5V27.7z"></path><path d="M153.3,15.5c-2.1-2.7-4.9-4.3-8.2-4.7c-0.4-2.4,1.4-4.8,3.8-5.5c2.8-0.8,5.6,0.6,6.8,3.2C156.8,11,155.8,13.9,153.3,15.5z"></path><path d="M26,15.8c-1.9-1.9-4.2-2.9-7.2-2.9s-5.3,1-6.9,2.9l-0.3-2.3h-0.2c-0.3,0.1-0.6,0.2-1,0.3c-1.8,0.8-3.4,2-4.7,3.8l0,0v25.7h7.4v-11c1.5,1.1,3.4,1.7,5.6,1.7c2.9,0,5.3-1,7.2-2.9c1.9-1.9,2.8-4.5,2.8-7.7S27.9,17.7,26,15.8z M20.4,26.7c-0.7,0.8-1.6,1.2-2.8,1.2c-1.3,0-2.4-0.4-3.2-1.2c-0.8-0.8-1.2-1.9-1.2-3.2s0.4-2.4,1.2-3.3c0.8-0.8,1.8-1.2,3.2-1.2c1.1,0,2.1,0.4,2.8,1.2c0.7,0.8,1.1,1.9,1.1,3.3C21.4,24.8,21.1,25.8,20.4,26.7z"></path><path d="M11.2,10.7c-3.4,0.4-6.3,1.9-8.3,4.7C0.4,14-0.6,11.2,0.4,8.6C1.3,6.1,4,4.5,6.6,5C9.4,5.6,11.2,7.8,11.2,10.7z"></path></svg>