<svg width="100%" height="100%" viewBox="0 0 12 13" xmlns="http://www.w3.org/2000/svg"><path d="M9.375 7.25C9.16406 7.25 9 7.4375 9 7.625V11C9 11.4219 8.64844 11.75 8.25 11.75H1.5C1.07812 11.75 0.75 11.4219 0.75 11V4.25C0.75 3.85156 1.07812 3.5 1.5 3.5H4.125C4.3125 3.5 4.5 3.33594 4.5 3.125C4.5 2.9375 4.3125 2.75 4.125 2.75H1.5C0.65625 2.75 0 3.42969 0 4.25V11C0 11.8438 0.65625 12.5 1.5 12.5H8.25C9.07031 12.5 9.75 11.8438 9.75 11V7.625C9.75 7.4375 9.5625 7.25 9.375 7.25ZM11.625 0.5H7.875C7.66406 0.5 7.5 0.6875 7.5 0.875C7.5 1.08594 7.66406 1.25 7.875 1.25H10.7109L4.21875 7.74219C4.07812 7.88281 4.07812 8.14062 4.21875 8.28125C4.28906 8.35156 4.38281 8.375 4.5 8.375C4.59375 8.375 4.6875 8.35156 4.75781 8.28125L11.25 1.78906V4.625C11.25 4.83594 11.4141 5 11.625 5C11.8125 5 12 4.83594 12 4.625V0.875C12 0.6875 11.8125 0.5 11.625 0.5Z" fill="currentColor"/></svg>