<svg width="100%" height="100%" viewBox="0 0 40 33" xmlns="http://www.w3.org/2000/svg"><path d="M17.125 19.4114H10.8125C4.8125 19.4114 0 24.2864 0 30.2864C0 31.4739 0.9375 32.4114 2.125 32.4114H25.8125C27 32.4114 28 31.4739 28 30.2864C28 24.2864 23.125 19.4114 17.125 19.4114ZM25.8125 30.4114H2.125C2.0625 30.4114 2 30.3489 2 30.2864C2 25.4114 5.9375 21.4114 10.8125 21.4114H17.125C22 21.4114 26 25.4114 26 30.2864C26 30.3489 25.875 30.4114 25.8125 30.4114ZM14 16.4114C18.375 16.4114 22 12.8489 22 8.41138C22 4.03638 18.375 0.411377 14 0.411377C9.5625 0.411377 6 4.03638 6 8.41138C6 12.8489 9.5625 16.4114 14 16.4114ZM14 2.41138C17.25 2.41138 20 5.16138 20 8.41138C20 11.7239 17.25 14.4114 14 14.4114C10.6875 14.4114 8 11.7239 8 8.41138C8 5.16138 10.6875 2.41138 14 2.41138ZM23.4375 15.4739C24.5 16.0989 25.75 16.4114 27 16.4114C30.8125 16.4114 34 13.2864 34 9.41138C34 5.59888 30.8125 2.41138 27 2.41138C26.1875 2.41138 25.375 2.59888 24.625 2.84888C24.125 3.03638 23.8125 3.59888 24 4.09888C24.1875 4.66138 24.8125 4.91138 25.3125 4.72388C25.8125 4.53638 26.375 4.41138 27 4.41138C29.75 4.41138 32 6.66138 32 9.41138C32 12.2239 29.75 14.4114 27 14.4114C26.0625 14.4114 25.25 14.2239 24.5 13.7864C24 13.4739 23.375 13.6614 23.125 14.1614C22.8125 14.5989 23 15.2239 23.4375 15.4739ZM30.625 20.4114H28C27.4375 20.4114 27 20.9114 27 21.4114C27 21.9739 27.4375 22.4114 28 22.4114H30.625C34.6875 22.4114 38 25.7239 38 29.7864C38 30.1614 37.6875 30.4114 37.3125 30.4114H31C30.4375 30.4114 30 30.9114 30 31.4114C30 31.9739 30.4375 32.4114 31 32.4114H37.3125C38.75 32.4114 40 31.2239 40 29.7864C40 24.5989 35.8125 20.4114 30.625 20.4114Z" fill="currentColor"/></svg>