<svg width="100%" height="100%" viewBox="0 0 9 15" xmlns="http://www.w3.org/2000/svg"><path d="M2.6875 5.125C2.44141 5.125 2.25 4.93359 2.25 4.6875C2.25 3.48438 3.20703 2.5 4.4375 2.5C4.65625 2.5 4.875 2.71875 4.875 2.9375C4.875 3.18359 4.65625 3.375 4.4375 3.375C3.69922 3.375 3.125 3.97656 3.125 4.6875C3.125 4.93359 2.90625 5.125 2.6875 5.125ZM8.375 4.6875C8.375 6.73828 6.84375 8.40625 4.875 8.625V14.3125C4.875 14.5586 4.65625 14.75 4.4375 14.75C4.19141 14.75 4 14.5586 4 14.3125V8.625C2.03125 8.40625 0.5 6.73828 0.5 4.6875C0.5 2.52734 2.25 0.75 4.4375 0.75C6.59766 0.75 8.375 2.52734 8.375 4.6875ZM4.4375 7.75C6.10547 7.75 7.5 6.38281 7.5 4.6875C7.5 3.01953 6.10547 1.625 4.4375 1.625C2.74219 1.625 1.375 3.01953 1.375 4.6875C1.375 6.38281 2.74219 7.75 4.4375 7.75Z" fill="currentColor"/></svg>