<svg width="100%" height="100%" viewBox="0 0 22 23" xmlns="http://www.w3.org/2000/svg"><path d="M11 0.25C4.89844 0.25 0 5.19141 0 11.25C0 17.3516 4.89844 22.25 11 22.25C17.0586 22.25 22 17.3516 22 11.25C22 5.19141 17.0586 0.25 11 0.25ZM11 20.875C5.67188 20.875 1.375 16.5781 1.375 11.25C1.375 5.96484 5.67188 1.625 11 1.625C16.2852 1.625 20.625 5.96484 20.625 11.25C20.625 16.5781 16.2852 20.875 11 20.875ZM10.3125 15.0312C9.71094 15.0312 9.28125 15.5039 9.28125 16.0625C9.28125 16.6641 9.71094 17.0938 10.3125 17.0938C10.8711 17.0938 11.3438 16.6641 11.3438 16.0625C11.3438 15.5039 10.8711 15.0312 10.3125 15.0312ZM12.2461 5.75H9.71094C8.12109 5.75 6.875 7.03906 6.875 8.62891V9.01562C6.875 9.40234 7.17578 9.70312 7.5625 9.70312C7.90625 9.70312 8.25 9.40234 8.25 9.01562V8.62891C8.25 7.8125 8.89453 7.125 9.71094 7.125H12.2461C13.0625 7.125 13.75 7.8125 13.75 8.62891C13.75 9.14453 13.4492 9.66016 12.9766 9.91797L10.3984 11.207C9.92578 11.4648 9.625 11.9805 9.625 12.5391V13.3125C9.625 13.6992 9.92578 14 10.3125 14C10.6562 14 11 13.6992 11 13.3125V12.5391C11 12.4961 11 12.4531 11.043 12.4102L13.6211 11.1211C14.5234 10.6055 15.125 9.66016 15.125 8.62891C15.125 7.03906 13.8359 5.75 12.2461 5.75Z" fill="currentColor"/></svg>